Coordinates
version=1
nRows=16
nColumns=22
inDegrees=yes

Units are S.I. units (second, meters, Newtons, ...)
If the header above contains a line with 'inDegrees', this indicates whether rotational values are in degrees (yes) or radians (no).

endheader
time	pelvis_tilt	pelvis_list	pelvis_rotation	pelvis_tx	pelvis_ty	pelvis_tz	hip_flexion_r	hip_adduction_r	hip_rotation_r	knee_angle_r	ankle_angle_r	subtalar_angle_r	hip_flexion_l	hip_adduction_l	hip_rotation_l	knee_angle_l	ankle_angle_l	subtalar_angle_l	lumbar_extension	lumbar_bending	lumbar_rotation
      0.97000000	    -11.57633235	      1.32925327	    -23.13239833	     -1.25667320	      0.97548670	     -0.43187554	     17.81706692	      2.71345094	      0.53843865	    -19.77854622	     19.20730839	     -5.14572393	     17.07208829	     -0.84506259	     -1.06042192	    -21.07212911	     22.03554739	     -5.35982938	      2.98171142	      4.12375363	      4.06309550
      0.98000000	    -11.56090222	      1.35530893	    -23.17093335	     -1.25668868	      0.97536448	     -0.43219707	     17.91490791	      2.67204526	      0.57106513	    -19.94814947	     19.26741797	     -5.12079663	     17.13070151	     -0.79885182	     -1.07759054	    -21.18930768	     22.08316640	     -5.38120072	      2.87686256	      4.06432702	      4.05025619
      0.99000000	    -11.57704434	      1.43502265	    -23.22884977	     -1.25672994	      0.97514406	     -0.43250700	     18.10292818	      2.60386101	      0.66769668	    -20.18793037	     19.36955363	     -5.05562957	     17.22980357	     -0.71369455	     -1.09357860	    -21.28378446	     22.09245877	     -5.42393651	      2.82808699	      3.96119331	      4.04691936
      1.00000000	    -11.55127386	      1.48401094	    -23.28210227	     -1.25671202	      0.97497001	     -0.43282448	     18.24772575	      2.54474808	      0.73493588	    -20.45324861	     19.47170512	     -5.04184591	     17.27971710	     -0.64097062	     -1.12218182	    -21.39263865	     22.15166422	     -5.45406626	      2.71755076	      3.87213748	      4.01984809
      1.01000000	    -11.51773816	      1.55172482	    -23.34480052	     -1.25668013	      0.97477296	     -0.43314876	     18.40765653	      2.46957710	      0.83215585	    -20.74748531	     19.58180874	     -5.03145717	     17.33379099	     -0.54536231	     -1.15013982	    -21.51325173	     22.19801101	     -5.48927100	      2.60193457	      3.75894894	      4.00838858
      1.02000000	    -11.47484934	      1.62097230	    -23.41131123	     -1.25661143	      0.97456307	     -0.43350143	     18.57005227	      2.38953522	      0.93918739	    -21.06394405	     19.70149183	     -5.02607519	     17.38580563	     -0.44136307	     -1.17908767	    -21.64945748	     22.25328990	     -5.52854393	      2.47284447	      3.64497669	      3.99678858
      1.03000000	    -11.43196207	      1.70033593	    -23.48292737	     -1.25651029	      0.97432860	     -0.43385589	     18.73819681	      2.30292313	      1.06761876	    -21.38763261	     19.82382298	     -5.01077177	     17.45558676	     -0.32458986	     -1.19160092	    -21.81664220	     22.29480211	     -5.58311607	      2.34769360	      3.51370684	      3.99962529
      1.04000000	    -11.37048684	      1.74749426	    -23.54796743	     -1.25631473	      0.97411592	     -0.43423068	     18.86821622	      2.23272327	      1.16264982	    -21.70721619	     19.95489462	     -5.01260210	     17.49881192	     -0.22643401	     -1.19734710	    -21.99895506	     22.37759639	     -5.62858069	      2.19073812	      3.41423372	      3.97577834
      1.05000000	    -11.30111454	      1.77717778	    -23.60172698	     -1.25605104	      0.97391378	     -0.43464327	     18.96166013	      2.16902599	      1.24564647	    -21.99306445	     20.06887500	     -5.01888219	     17.54940655	     -0.13328485	     -1.17867677	    -22.22591742	     22.46642161	     -5.67015033	      2.01506329	      3.32795243	      3.95698838
      1.06000000	    -11.23885978	      1.80295917	    -23.65622721	     -1.25571566	      0.97369600	     -0.43506203	     19.04886214	      2.11065975	      1.33394718	    -22.26577883	     20.20069985	     -5.02380896	     17.60359165	     -0.03999018	     -1.13620971	    -22.45532105	     22.54911704	     -5.72409579	      1.85019177	      3.24808756	      3.93472853
      1.07000000	    -11.19008358	      1.81254684	    -23.70142853	     -1.25531620	      0.97346332	     -0.43550321	     19.12257637	      2.06776301	      1.41051153	    -22.50914849	     20.32399765	     -5.02575951	     17.67207002	      0.03962052	     -1.07085801	    -22.70161101	     22.63359798	     -5.79259706	      1.69495679	      3.19187990	      3.90556095
      1.08000000	    -11.15934237	      1.79907244	    -23.73547159	     -1.25487229	      0.97321536	     -0.43595468	     19.18164110	      2.04937428	      1.47166736	    -22.71654694	     20.43123066	     -5.02997170	     17.75803205	      0.09466311	     -0.98660502	    -22.96747318	     22.72654153	     -5.86707538	      1.54766643	      3.16401117	      3.86944905
      1.09000000	    -11.15554821	      1.76672530	    -23.75603861	     -1.25439067	      0.97292782	     -0.43642642	     19.24125466	      2.05405814	      1.51155435	    -22.89679924	     20.53475660	     -5.03912907	     17.87286761	      0.12568515	     -0.88859892	    -23.25262790	     22.83955398	     -5.96243658	      1.42307181	      3.16852425	      3.82681275
      1.10000000	    -11.23956734	      1.72792989	    -23.74693991	     -1.25391536	      0.97251323	     -0.43693001	     19.36838607	      2.09420525	      1.53067476	    -23.04826639	     20.58192562	     -5.05744502	     18.08765444	      0.12410152	     -0.73356280	    -23.56737611	     22.94826417	     -6.16802703	      1.39110483	      3.21169534	      3.76612100
      1.11000000	    -11.24474585	      1.68150028	    -23.77471296	     -1.25335157	      0.97222329	     -0.43737359	     19.41290289	      2.11510994	      1.56777211	    -23.20453934	     20.66635448	     -5.08643556	     18.18360132	      0.13293410	     -0.66464345	    -23.82706782	     23.07132894	     -6.22111694	      1.26944006	      3.22666323	      3.74959829
      1.12000000	    -11.33325456	      1.64328545	    -23.78169589	     -1.25276457	      0.97180503	     -0.43783404	     19.53002729	      2.15951953	      1.59908806	    -23.34037998	     20.70898979	     -5.15365528	     18.36588677	      0.12164222	     -0.55523266	    -24.09325290	     23.20752122	     -6.35630035	      1.24708208	      3.26700106	      3.73021070
